<svg height="454pt" viewBox="-69 0 454 454.20011" width="454pt" xmlns="http://www.w3.org/2000/svg"><path d="m157.929688 317.40625c51.46875 0 93.171874-42.160156 93.171874-93.980469v-130.089843c.148438-24.726563-9.578124-48.488282-27.023437-66.015626-17.445313-17.523437-41.164063-27.3593745-65.894531-27.320312-51.46875 0-93.082032 41.867188-93.082032 93.335938v130.726562c-.191406 24.726562 9.511719 48.5 26.949219 66.03125 17.433594 17.53125 41.152344 27.363281 65.878907 27.3125zm-80.828126-167.207031h162v20h-162zm81.167969-138.199219c21.542969-.054688 42.210938 8.515625 57.394531 23.796875 15.183594 15.277344 23.625 36 23.4375 57.539063v44.863281h-162v-44.863281c-.027343-44.867188 36.300782-81.269532 81.167969-81.335938zm-81.167969 170.199219h162v41.226562c0 45.203125-36.320312 81.980469-81.171874 81.980469-21.542969.050781-42.210938-8.515625-57.394532-23.796875s-23.625-36.003906-23.433594-57.546875zm0 0"/><path d="m39.101562 181.199219h-33c-3.316406 0-6 2.6875-6 6v41.742187c.15625 78.601563 58.148438 145.097656 136 155.9375v24.320313h-45c-3.316406 0-6 2.6875-6 6v33c0 3.316406 2.683594 6 6 6h134c3.3125 0 6-2.683594 6-6v-33c0-3.3125-2.6875-6-6-6h-45v-24.316407c32.90625-4.628906 63.730469-18.820312 88.640626-40.8125 30.097656-26.65625 47.359374-60.46875 47.359374-92.757812v-64.113281c0-3.3125-2.6875-6-6-6h-33c-3.316406 0-6 2.6875-6 6v64.113281c0 19.578125-11.96875 41.867188-32.011718 59.621094-22.289063 19.957031-51.117188 31.054687-81.039063 31.199218-30.015625.054688-58.8125-11.859374-80.015625-33.105468-21.199218-21.246094-33.054687-50.070313-32.933594-80.085938v-41.742187c0-3.3125-2.6875-6-6-6zm30.472657 136.339843c23.421875 23.527344 55.28125 36.707032 88.476562 36.601563 32.855469-.144531 64.515625-12.320313 89-34.222656 22.570313-19.996094 36.050781-45.644531 36.050781-68.605469v-58.113281h21v58.113281c0 28.859375-15.789062 59.398438-43.316406 83.777344-24.410156 21.5625-54.914062 35.019531-87.300781 38.503906-3.058594.316406-5.382813 2.894531-5.382813 5.96875v35.636719c0 3.316406 2.683594 6 6 6h45v21h-122v-21h45c3.3125 0 6-2.683594 6-6v-35.644531c0-3.074219-2.328124-5.652344-5.386718-5.964844-74.117188-7.734375-130.460938-70.128906-130.613282-144.648438v-35.742187h21v35.742187c-.164062 33.21875 12.972657 65.121094 36.472657 88.597656zm0 0"/></svg>